<svg width="17" height="15" viewBox="0 0 17 15" fill="none" xmlns="http://www.w3.org/2000/svg">
<path d="M2.5 15V13.3333H14.1667V15H2.5ZM2.5 12.0833L1.4375 5.39583C1.40972 5.39583 1.37847 5.39931 1.34375 5.40625C1.30903 5.41319 1.27778 5.41667 1.25 5.41667C0.902778 5.41667 0.607639 5.29514 0.364583 5.05208C0.121528 4.80903 0 4.51389 0 4.16667C0 3.81944 0.121528 3.52431 0.364583 3.28125C0.607639 3.03819 0.902778 2.91667 1.25 2.91667C1.59722 2.91667 1.89236 3.03819 2.13542 3.28125C2.37847 3.52431 2.5 3.81944 2.5 4.16667C2.5 4.26389 2.48958 4.35417 2.46875 4.4375C2.44792 4.52083 2.42361 4.59722 2.39583 4.66667L5 5.83333L7.60417 2.27083C7.45139 2.15972 7.32639 2.01389 7.22917 1.83333C7.13194 1.65278 7.08333 1.45833 7.08333 1.25C7.08333 0.902778 7.20486 0.607639 7.44792 0.364583C7.69097 0.121528 7.98611 0 8.33333 0C8.68056 0 8.97569 0.121528 9.21875 0.364583C9.46181 0.607639 9.58333 0.902778 9.58333 1.25C9.58333 1.45833 9.53472 1.65278 9.4375 1.83333C9.34028 2.01389 9.21528 2.15972 9.0625 2.27083L11.6667 5.83333L14.2708 4.66667C14.2431 4.59722 14.2188 4.52083 14.1979 4.4375C14.1771 4.35417 14.1667 4.26389 14.1667 4.16667C14.1667 3.81944 14.2882 3.52431 14.5312 3.28125C14.7743 3.03819 15.0694 2.91667 15.4167 2.91667C15.7639 2.91667 16.059 3.03819 16.3021 3.28125C16.5451 3.52431 16.6667 3.81944 16.6667 4.16667C16.6667 4.51389 16.5451 4.80903 16.3021 5.05208C16.059 5.29514 15.7639 5.41667 15.4167 5.41667C15.3889 5.41667 15.3576 5.41319 15.3229 5.40625C15.2882 5.39931 15.2569 5.39583 15.2292 5.39583L14.1667 12.0833H2.5Z" fill="#594DB3"/>
</svg>
